<svg width="33" height="30" viewBox="0 0 33 30" fill="none" xmlns="http://www.w3.org/2000/svg">
<path d="M8.13486 0.00135636L3.6878 4.45248L1.95237 2.71704L0 4.66534L2.71162 7.37696L3.6878 8.30705L4.66398 7.3756L10.0872 1.95237L8.13486 0V0.00135636ZM14.5343 2.33335V5.04497H32.1598V2.33335H14.5343ZM8.13486 10.8478L3.6878 15.3003L1.95237 13.5595L0 15.5118L2.71162 18.2234L3.6878 19.1535L4.66398 18.2221L10.0872 12.7988L8.13486 10.8478ZM14.5343 13.1798V15.8914H32.1598V13.1798H14.5343ZM8.13486 21.6943L3.6878 26.1454L1.95237 24.41L0 26.3583L2.71162 29.0699L3.6878 30L4.66398 29.0686L10.0872 23.6453L8.13486 21.693V21.6943ZM14.5343 24.0263V26.7379H32.1598V24.0263H14.5343Z" fill="white"/>
</svg>
