<svg width="15" height="20" viewBox="0 0 15 20" fill="none" xmlns="http://www.w3.org/2000/svg">
<path d="M12.2117 9.6453C13.2891 8.61912 13.9549 7.24014 13.9549 5.71889C13.9549 2.56449 11.1077 0 7.60812 0H0.424886C0.189681 0 0 0.189681 0 0.424886V19.5751C0 19.8103 0.189681 20 0.424886 20H8.5091C12.0106 20 14.8577 17.4336 14.8577 14.2792C14.8577 12.3729 13.8107 10.6847 12.2117 9.6453V9.6453ZM7.31411 7.87178H4.66047C4.62064 7.87178 4.59219 7.84522 4.57701 7.80918C4.57132 7.7978 4.56184 7.78642 4.56184 7.77314V3.92261C4.56184 3.90933 4.57132 3.89795 4.57701 3.88657C4.59219 3.85243 4.62064 3.82398 4.66047 3.82398H7.31411C8.37822 3.82398 9.24507 4.73065 9.24507 5.84598C9.24507 6.9632 8.37822 7.87178 7.31411 7.87178ZM7.47534 16.3088H4.67565C4.66806 16.3088 4.66237 16.3012 4.65478 16.2993C4.61305 16.2879 4.57891 16.2557 4.57891 16.2102V11.7261C4.57891 11.6806 4.61305 11.6483 4.65478 11.6369C4.66426 11.6351 4.66806 11.6275 4.67565 11.6275H7.47344C7.52655 11.6275 7.57967 11.6313 7.63088 11.6369C8.73862 11.7261 9.61495 12.7352 9.61495 13.9681C9.61495 15.1973 8.74241 16.2064 7.63657 16.2993C7.58536 16.3031 7.53035 16.3088 7.47534 16.3088Z" fill="white"/>
</svg>
