<svg width="27" height="30" viewBox="0 0 27 30" fill="none" xmlns="http://www.w3.org/2000/svg">
<path d="M5.29399 9.70565C5.29399 9.47164 5.38695 9.24721 5.55242 9.08174C5.71789 8.91627 5.94231 8.82331 6.17632 8.82331H14.9996C15.2336 8.82331 15.4581 8.91627 15.6235 9.08174C15.789 9.24721 15.882 9.47164 15.882 9.70565C15.882 9.93965 15.789 10.1641 15.6235 10.3295C15.4581 10.495 15.2336 10.588 14.9996 10.588H6.17632C5.94231 10.588 5.71789 10.495 5.55242 10.3295C5.38695 10.1641 5.29399 9.93965 5.29399 9.70565ZM6.17632 14.1173C5.94231 14.1173 5.71789 14.2103 5.55242 14.3757C5.38695 14.5412 5.29399 14.7656 5.29399 14.9996C5.29399 15.2336 5.38695 15.4581 5.55242 15.6235C5.71789 15.789 5.94231 15.882 6.17632 15.882H14.9996C15.2336 15.882 15.4581 15.789 15.6235 15.6235C15.789 15.4581 15.882 15.2336 15.882 14.9996C15.882 14.7656 15.789 14.5412 15.6235 14.3757C15.4581 14.2103 15.2336 14.1173 14.9996 14.1173H6.17632ZM5.29399 20.2936C5.29399 20.0596 5.38695 19.8352 5.55242 19.6697C5.71789 19.5042 5.94231 19.4113 6.17632 19.4113H9.70565C9.93965 19.4113 10.1641 19.5042 10.3295 19.6697C10.495 19.8352 10.588 20.0596 10.588 20.2936C10.588 20.5276 10.495 20.7521 10.3295 20.9175C10.1641 21.083 9.93965 21.176 9.70565 21.176H6.17632C5.94231 21.176 5.71789 21.083 5.55242 20.9175C5.38695 20.7521 5.29399 20.5276 5.29399 20.2936ZM3.52933 0.882331C3.52933 0.648323 3.62229 0.423898 3.78775 0.258429C3.95322 0.0929598 4.17765 0 4.41166 0C4.64567 0 4.87009 0.0929598 5.03556 0.258429C5.20103 0.423898 5.29399 0.648323 5.29399 0.882331V1.76466H9.70565V0.882331C9.70565 0.648323 9.7986 0.423898 9.96407 0.258429C10.1295 0.0929598 10.354 0 10.588 0C10.822 0 11.0464 0.0929598 11.2119 0.258429C11.3773 0.423898 11.4703 0.648323 11.4703 0.882331V1.76466H15.882V0.882331C15.882 0.648323 15.9749 0.423898 16.1404 0.258429C16.3059 0.0929598 16.5303 0 16.7643 0C16.9983 0 17.2227 0.0929598 17.3882 0.258429C17.5537 0.423898 17.6466 0.648323 17.6466 0.882331V1.76466H18.529C19.231 1.76466 19.9043 2.04354 20.4007 2.53995C20.8971 3.03636 21.176 3.70963 21.176 4.41166V12.762C20.6007 13.0091 20.0607 13.3656 19.5913 13.8367L19.4113 14.0167V4.41166C19.4113 4.17765 19.3183 3.95322 19.1529 3.78775C18.9874 3.62229 18.763 3.52933 18.529 3.52933H2.64699C2.41299 3.52933 2.18856 3.62229 2.02309 3.78775C1.85762 3.95322 1.76466 4.17765 1.76466 4.41166V25.5876C1.76466 25.8216 1.85762 26.046 2.02309 26.2115C2.18856 26.377 2.41299 26.4699 2.64699 26.4699H9.21154L8.9239 27.6223C8.87365 27.8231 8.84176 28.028 8.82861 28.2346H2.64699C1.94497 28.2346 1.27169 27.9557 0.775286 27.4593C0.278879 26.9629 0 26.2896 0 25.5876V4.41166C0 3.70963 0.278879 3.03636 0.775286 2.53995C1.27169 2.04354 1.94497 1.76466 2.64699 1.76466H3.52933V0.882331ZM20.8407 15.0843L12.3173 23.6077C11.8206 24.1042 11.468 24.7263 11.2974 25.4076L10.6356 28.0511C10.5704 28.314 10.5742 28.5893 10.6468 28.8503C10.7194 29.1113 10.8582 29.3491 11.0499 29.5405C11.2415 29.732 11.4794 29.8706 11.7405 29.943C12.0015 30.0153 12.2768 30.0189 12.5397 29.9534L15.1832 29.2934C15.8646 29.123 16.4868 28.7704 16.9831 28.2734L25.5064 19.7501C26.1173 19.1295 26.458 18.2927 26.4545 17.4219C26.451 16.5511 26.1034 15.7171 25.4876 15.1015C24.8717 14.4859 24.0375 14.1386 23.1668 14.1354C22.296 14.1322 21.4593 14.4733 20.8389 15.0843H20.8407Z" fill="white"/>
</svg>
