<svg width="25" height="25" viewBox="0 0 39 24" fill="none" xmlns="http://www.w3.org/2000/svg">
<path d="M35.7829 23.6842C35.5846 23.1157 35.4521 22.5263 35.3881 21.9276C34.0658 23.3092 32.4671 24 30.6316 24C28.9934 24 27.6316 23.5263 26.5855 22.5987C25.5395 21.7105 25.0066 20.5066 25.0066 19.0658C25.0066 17.3289 25.6579 15.9868 26.9803 15.0197C28.3026 14.0526 30.1579 13.5789 32.5658 13.5789H35.3289V12.3158C35.3289 11.3487 35.0329 10.5789 34.4408 10.0066C33.8487 9.43421 32.9605 9.1579 31.8158 9.1579C30.7895 9.1579 29.9408 9.39474 29.25 9.86842C28.5592 10.3618 28.2237 10.9342 28.2237 11.625H25.3421C25.3421 10.7763 25.6382 9.9671 26.2303 9.17763C26.7829 8.38816 27.6316 7.77632 28.6381 7.32237C29.6447 6.90789 30.7303 6.63158 31.9737 6.63158C33.9079 6.63158 35.4079 7.10526 36.4934 8.07237C37.5789 9.03947 38.1513 10.3618 38.1908 12.0592V19.7368C38.1908 21.3158 38.3881 22.5395 38.7829 23.4474V23.6842H35.7829ZM31.046 21.4737C31.9342 21.4737 32.7829 21.2566 33.5921 20.8421C34.3816 20.4276 34.9737 19.875 35.3289 19.2039V16.1053H33.0987C29.6053 16.1053 27.8487 17.0329 27.8487 18.8882C27.8487 19.7368 28.1447 20.3289 28.7566 20.7829C29.3487 21.2368 30.0987 21.4737 31.046 21.4737ZM6.9671 15.2171H15L10.9934 4.51974L6.9671 15.2171ZM9.29605 0H12.6908L21.9868 23.6842H18.1776L16.2632 18.6118H5.70395L3.80921 23.6842H0L9.29605 0Z" fill="white"/>
</svg>
