<svg width="30" height="30" viewBox="0 0 30 30" fill="none" xmlns="http://www.w3.org/2000/svg">
<path fill-rule="evenodd" clip-rule="evenodd" d="M0 28.3333C0 27.8913 0.143669 27.4674 0.3994 27.1548C0.655132 26.8423 1.00198 26.6667 1.36364 26.6667H28.6364C28.998 26.6667 29.3449 26.8423 29.6006 27.1548C29.8563 27.4674 30 27.8913 30 28.3333C30 28.7754 29.8563 29.1993 29.6006 29.5118C29.3449 29.8244 28.998 30 28.6364 30H1.36364C1.00198 30 0.655132 29.8244 0.3994 29.5118C0.143669 29.1993 0 28.7754 0 28.3333ZM0 15C0 14.558 0.143669 14.134 0.3994 13.8215C0.655132 13.5089 1.00198 13.3333 1.36364 13.3333H28.6364C28.998 13.3333 29.3449 13.5089 29.6006 13.8215C29.8563 14.134 30 14.558 30 15C30 15.442 29.8563 15.866 29.6006 16.1785C29.3449 16.4911 28.998 16.6667 28.6364 16.6667H1.36364C1.00198 16.6667 0.655132 16.4911 0.3994 16.1785C0.143669 15.866 0 15.442 0 15ZM0 1.66667C0 1.22464 0.143669 0.800716 0.3994 0.488156C0.655132 0.175595 1.00198 0 1.36364 0H28.6364C28.998 0 29.3449 0.175595 29.6006 0.488156C29.8563 0.800716 30 1.22464 30 1.66667C30 2.10869 29.8563 2.53262 29.6006 2.84518C29.3449 3.15774 28.998 3.33333 28.6364 3.33333H1.36364C1.00198 3.33333 0.655132 3.15774 0.3994 2.84518C0.143669 2.53262 0 2.10869 0 1.66667Z" fill="white"/>
</svg>
