<svg width="30" height="30" viewBox="0 0 30 30" fill="none" xmlns="http://www.w3.org/2000/svg">
<path d="M0 4.6875C0 3.4443 0.49386 2.25201 1.37294 1.37294C2.25201 0.49386 3.4443 0 4.6875 0H22.8125C24.0557 0 25.248 0.49386 26.1271 1.37294C27.0061 2.25201 27.5 3.4443 27.5 4.6875V14.375C26.9196 13.9385 26.2904 13.571 25.625 13.28V10H19.375V12.8375C18.7249 13.0168 18.0962 13.2662 17.5 13.5812V10H10V17.5H13.5812C13.2662 18.0962 13.0168 18.7249 12.8375 19.375H10V25.625H13.28C13.5725 26.2938 13.9412 26.9225 14.3737 27.5H4.6875C3.4443 27.5 2.25201 27.0061 1.37294 26.1271C0.49386 25.248 0 24.0557 0 22.8125V4.6875ZM1.875 19.375V22.8125C1.875 23.5584 2.17132 24.2738 2.69876 24.8012C3.22621 25.3287 3.94158 25.625 4.6875 25.625H8.125V19.375H1.875ZM8.125 17.5V10H1.875V17.5H8.125ZM25.625 4.6875C25.625 3.94158 25.3287 3.22621 24.8012 2.69876C24.2738 2.17132 23.5584 1.875 22.8125 1.875H19.375V8.125H25.625V4.6875ZM17.5 1.875H10V8.125H17.5V1.875ZM8.125 1.875H4.6875C3.94158 1.875 3.22621 2.17132 2.69876 2.69876C2.17132 3.22621 1.875 3.94158 1.875 4.6875V8.125H8.125V1.875ZM30 21.875C30 24.0299 29.144 26.0965 27.6202 27.6202C26.0965 29.144 24.0299 30 21.875 30C19.7201 30 17.6535 29.144 16.1298 27.6202C14.606 26.0965 13.75 24.0299 13.75 21.875C13.75 19.7201 14.606 17.6535 16.1298 16.1298C17.6535 14.606 19.7201 13.75 21.875 13.75C24.0299 13.75 26.0965 14.606 27.6202 16.1298C29.144 17.6535 30 19.7201 30 21.875V21.875ZM22.5 16.875C22.5 16.7092 22.4342 16.5503 22.3169 16.4331C22.1997 16.3158 22.0408 16.25 21.875 16.25C21.7092 16.25 21.5503 16.3158 21.4331 16.4331C21.3158 16.5503 21.25 16.7092 21.25 16.875V21.25H16.875C16.7092 21.25 16.5503 21.3158 16.4331 21.4331C16.3158 21.5503 16.25 21.7092 16.25 21.875C16.25 22.0408 16.3158 22.1997 16.4331 22.3169C16.5503 22.4342 16.7092 22.5 16.875 22.5H21.25V26.875C21.25 27.0408 21.3158 27.1997 21.4331 27.3169C21.5503 27.4342 21.7092 27.5 21.875 27.5C22.0408 27.5 22.1997 27.4342 22.3169 27.3169C22.4342 27.1997 22.5 27.0408 22.5 26.875V22.5H26.875C27.0408 22.5 27.1997 22.4342 27.3169 22.3169C27.4342 22.1997 27.5 22.0408 27.5 21.875C27.5 21.7092 27.4342 21.5503 27.3169 21.4331C27.1997 21.3158 27.0408 21.25 26.875 21.25H22.5V16.875Z" fill="white"/>
</svg>
