<svg width="18" height="20" viewBox="0 0 18 20" fill="none" xmlns="http://www.w3.org/2000/svg">
<path d="M17.1739 17.9348H0.217391C0.0978261 17.9348 0 18.0272 0 18.1413V19.7935C0 19.9076 0.0978261 20 0.217391 20H17.1739C17.2935 20 17.3913 19.9076 17.3913 19.7935V18.1413C17.3913 18.0272 17.2935 17.9348 17.1739 17.9348ZM8.69565 15.8696C10.5815 15.8696 12.3533 15.1332 13.6902 13.7989C15.0272 12.4647 15.7609 10.6902 15.7609 8.80435V0.326087C15.7609 0.146739 15.6141 0 15.4348 0H13.8043C13.625 0 13.4783 0.146739 13.4783 0.326087V8.80435C13.4783 11.4402 11.3315 13.587 8.69565 13.587C6.05978 13.587 3.91304 11.4402 3.91304 8.80435V0.326087C3.91304 0.146739 3.7663 0 3.58696 0H1.95652C1.77717 0 1.63043 0.146739 1.63043 0.326087V8.80435C1.63043 10.6902 2.36685 12.462 3.70109 13.7989C5.03533 15.1359 6.80978 15.8696 8.69565 15.8696Z" fill="white"/>
</svg>
