<svg width="16" height="20" viewBox="0 0 16 20" fill="none" xmlns="http://www.w3.org/2000/svg">
<path fill-rule="evenodd" clip-rule="evenodd" d="M4.41111 17.7778L8.57778 2.22222H5.55556C5.26087 2.22222 4.97826 2.10516 4.76988 1.89679C4.56151 1.68841 4.44444 1.4058 4.44444 1.11111C4.44444 0.816426 4.56151 0.533811 4.76988 0.325437C4.97826 0.117063 5.26087 0 5.55556 0H14.4444C14.7391 0 15.0217 0.117063 15.2301 0.325437C15.4385 0.533811 15.5556 0.816426 15.5556 1.11111C15.5556 1.4058 15.4385 1.68841 15.2301 1.89679C15.0217 2.10516 14.7391 2.22222 14.4444 2.22222H10.88L6.71111 17.7778H10C10.2947 17.7778 10.5773 17.8948 10.7857 18.1032C10.994 18.3116 11.1111 18.5942 11.1111 18.8889C11.1111 19.1836 10.994 19.4662 10.7857 19.6746C10.5773 19.8829 10.2947 20 10 20H1.11111C0.816426 20 0.533811 19.8829 0.325437 19.6746C0.117063 19.4662 0 19.1836 0 18.8889C0 18.5942 0.117063 18.3116 0.325437 18.1032C0.533811 17.8948 0.816426 17.7778 1.11111 17.7778H4.41111Z" fill="white"/>
</svg>
