<svg width="36" height="36" viewBox="0 0 36 36" fill="none" xmlns="http://www.w3.org/2000/svg">
<path d="M32.8799 19.92H2.87988C2.61467 19.92 2.36031 19.8146 2.17278 19.6271C1.98524 19.4396 1.87988 19.1852 1.87988 18.92C1.87988 18.6548 1.98524 18.4004 2.17278 18.2129C2.36031 18.0254 2.61467 17.92 2.87988 17.92H32.8799C33.1451 17.92 33.3995 18.0254 33.587 18.2129C33.7745 18.4004 33.8799 18.6548 33.8799 18.92C33.8799 19.1852 33.7745 19.4396 33.587 19.6271C33.3995 19.8146 33.1451 19.92 32.8799 19.92Z" fill="white"/>
<path d="M7.27006 15.86C7.69039 15.6636 8.12102 15.49 8.56006 15.34C9.14726 15.127 9.76553 15.0121 10.3901 15C10.9041 14.9477 11.4232 15.0214 11.9024 15.2148C12.3815 15.4082 12.8064 15.7155 13.1401 16.11C13.7223 16.9028 14.0248 17.8666 14.0001 18.85V19.34C12.6181 18.8684 11.1702 18.6186 9.71006 18.6C8.8179 18.5912 7.93439 18.7754 7.12006 19.14C6.6409 19.356 6.19881 19.6463 5.81006 20H15.8801V18.85C15.9562 17.3899 15.4654 15.9568 14.5101 14.85C13.9882 14.3307 13.3613 13.929 12.6714 13.672C11.9814 13.415 11.2445 13.3086 10.5101 13.36C9.1607 13.3865 7.83065 13.6858 6.60006 14.24C6.49182 14.2864 6.39412 14.3542 6.31287 14.4394C6.23163 14.5246 6.16852 14.6255 6.12739 14.7358C6.08625 14.8461 6.06793 14.9636 6.07355 15.0812C6.07917 15.1989 6.1086 15.3141 6.16006 15.42C6.20359 15.5221 6.26694 15.6147 6.34645 15.6922C6.42596 15.7697 6.52005 15.8306 6.62327 15.8716C6.72649 15.9125 6.8368 15.9325 6.94782 15.9305C7.05884 15.9286 7.16836 15.9046 7.27006 15.86V15.86Z" fill="white"/>
<path d="M20.9999 20C21.0227 19.2015 21.2064 18.4159 21.5399 17.69C21.8831 16.943 22.4309 16.3084 23.1199 15.86C23.8056 15.423 24.6018 15.1908 25.4149 15.1908C26.228 15.1908 27.0242 15.423 27.7099 15.86C28.391 16.3147 28.9341 16.9477 29.2799 17.69C29.6192 18.4153 29.8128 19.2001 29.8499 20H31.8499C31.8214 18.8931 31.5554 17.8052 31.0699 16.81C30.5848 15.8067 29.83 14.9584 28.8899 14.36C27.9618 13.7767 26.8861 13.4713 25.7899 13.48C24.8075 13.4636 23.8392 13.716 22.9899 14.21C22.1554 14.7066 21.4657 15.4135 20.9899 16.26V10C20.9873 9.77272 20.8959 9.55548 20.7351 9.39476C20.5744 9.23404 20.3572 9.1426 20.1299 9.14H19.9999C19.7726 9.1426 19.5554 9.23404 19.3947 9.39476C19.2339 9.55548 19.1425 9.77272 19.1399 10V20H20.9999Z" fill="white"/>
<path d="M29.6701 22C29.5864 22.3679 29.4658 22.7263 29.3101 23.07C28.9673 23.8196 28.424 24.4599 27.7401 24.92C27.0523 25.3513 26.2569 25.58 25.4451 25.58C24.6333 25.58 23.8379 25.3513 23.1501 24.92C22.4582 24.4662 21.9101 23.8244 21.5701 23.07C21.4112 22.7266 21.2872 22.3682 21.2001 22H19.0901V26.13C19.09 26.2477 19.1137 26.3642 19.1599 26.4724C19.2061 26.5807 19.2738 26.6784 19.3589 26.7598C19.444 26.8411 19.5446 26.9043 19.6549 26.9456C19.7651 26.9869 19.8825 27.0054 20.0001 27H20.2001C20.4274 26.9974 20.6446 26.906 20.8053 26.7452C20.9661 26.5845 21.0575 26.3673 21.0601 26.14V24.51C21.5357 25.3594 22.2251 26.0695 23.0601 26.57C23.9121 27.0563 24.8791 27.305 25.8601 27.29C26.9569 27.3032 28.0339 26.9975 28.9601 26.41C29.8803 25.8202 30.6179 24.9857 31.0901 24C31.4015 23.3688 31.6172 22.6947 31.7301 22H29.6701Z" fill="white"/>
<path d="M14.0001 22V22.76C13.8757 23.1839 13.6685 23.579 13.3905 23.9223C13.1124 24.2656 12.769 24.5503 12.3801 24.76C11.5629 25.2337 10.6346 25.4821 9.69008 25.48C8.84734 25.5165 8.01661 25.2701 7.33008 24.78C7.0287 24.5655 6.78513 24.2798 6.6211 23.9482C6.45707 23.6167 6.37771 23.2497 6.39008 22.88C6.39368 22.5662 6.46176 22.2564 6.59008 21.97H4.62008C4.53473 22.2965 4.49105 22.6325 4.49008 22.97C4.46902 23.5489 4.57958 24.1251 4.81341 24.6551C5.04725 25.1852 5.39828 25.6553 5.84008 26.03C6.81435 26.8319 8.04914 27.2483 9.31008 27.2C10.2435 27.2021 11.1646 26.9864 12.0001 26.57C12.8224 26.1978 13.5177 25.5929 14.0001 24.83V26C14.0001 26.2281 14.0907 26.4468 14.252 26.6081C14.4132 26.7694 14.632 26.86 14.8601 26.86H15.0001C15.2282 26.86 15.4469 26.7694 15.6082 26.6081C15.7695 26.4468 15.8601 26.2281 15.8601 26V22H14.0001Z" fill="white"/>
</svg>
