<svg width="27" height="30" viewBox="0 0 27 30" fill="none" xmlns="http://www.w3.org/2000/svg">
<path d="M9.375 23.4375C9.375 23.9531 8.95312 24.375 8.4375 24.375C7.92187 24.375 7.5 23.9531 7.5 23.4375V11.25C7.5 10.7344 7.92187 10.3125 8.4375 10.3125C8.95312 10.3125 9.375 10.7344 9.375 11.25V23.4375ZM14.0625 23.4375C14.0625 23.9531 13.6406 24.375 13.125 24.375C12.6094 24.375 12.1875 23.9531 12.1875 23.4375V11.25C12.1875 10.7344 12.6094 10.3125 13.125 10.3125C13.6406 10.3125 14.0625 10.7344 14.0625 11.25V23.4375ZM18.75 23.4375C18.75 23.9531 18.3281 24.375 17.8125 24.375C17.2969 24.375 16.875 23.9531 16.875 23.4375V11.25C16.875 10.7344 17.2969 10.3125 17.8125 10.3125C18.3281 10.3125 18.75 10.7344 18.75 11.25V23.4375ZM18.6035 1.46133L20.7539 4.6875H24.8437C25.623 4.6875 26.25 5.31738 26.25 6.09375C26.25 6.87305 25.623 7.5 24.8437 7.5H24.375V25.3125C24.375 27.9023 22.2773 30 19.6875 30H6.5625C3.97383 30 1.875 27.9023 1.875 25.3125V7.5H1.40625C0.629883 7.5 0 6.87305 0 6.09375C0 5.31738 0.629883 4.6875 1.40625 4.6875H5.49727L7.64648 1.46133C8.25586 0.548262 9.28125 0 10.377 0H15.873C16.9687 0 17.9941 0.54832 18.6035 1.46133ZM8.87695 4.6875H17.373L16.2598 3.02109C16.1719 2.89102 16.0254 2.8125 15.873 2.8125H10.377C10.2246 2.8125 10.0254 2.89102 9.99023 3.02109L8.87695 4.6875ZM4.6875 25.3125C4.6875 26.3496 5.52715 27.1875 6.5625 27.1875H19.6875C20.7246 27.1875 21.5625 26.3496 21.5625 25.3125V7.5H4.6875V25.3125Z" fill="white"/>
</svg>
